<svg width="14" height="14" viewBox="0 0 14 14" fill="none" xmlns="http://www.w3.org/2000/svg">
<path d="M6.58488 0.777344C4.58559 0.777344 2.93923 1.27917 1.78178 2.24354C0.611325 3.21873 0.00488281 4.6146 0.00488281 6.25334C0.00488281 8.20749 0.867373 9.79471 2.46801 10.7473L2.78178 12.717C2.81606 12.9322 2.96427 13.1119 3.16898 13.1864C3.3737 13.261 3.60274 13.2187 3.76736 13.076L5.39399 11.6657C5.77455 11.708 6.1718 11.7293 6.58488 11.7293C8.58418 11.7293 10.2305 11.2275 11.388 10.2632C12.5584 9.28795 13.1649 7.89209 13.1649 6.25334C13.1649 4.6146 12.5584 3.21873 11.388 2.24354C10.2305 1.27917 8.58418 0.777344 6.58488 0.777344Z" fill="black"/>
</svg>
