<svg width="18" height="18" viewBox="0 0 18 18" fill="none" xmlns="http://www.w3.org/2000/svg">
<path id="Icon" d="M12.7071 9.70711L9.70714 12.7071C9.31661 13.0976 8.68345 13.0976 8.29292 12.7071L5.29292 9.70711C5.00693 9.42111 4.92137 8.99099 5.07615 8.61732C5.23093 8.24364 5.59557 8 6.00003 8H8.00003V1C8.00003 0.447715 8.44774 0 9.00003 0C9.55231 0 10 0.447715 10 1V8H12C12.4045 8 12.7691 8.24364 12.9239 8.61732C13.0787 8.99099 12.9931 9.42111 12.7071 9.70711ZM2 11V12.2C2 13.0566 2.00078 13.6389 2.03755 14.089C2.07337 14.5274 2.1383 14.7516 2.21799 14.908C2.40974 15.2843 2.7157 15.5903 3.09202 15.782C3.24842 15.8617 3.47262 15.9266 3.91104 15.9624C4.36113 15.9992 4.94342 16 5.8 16H12.2C13.0566 16 13.6389 15.9992 14.089 15.9624C14.5274 15.9266 14.7516 15.8617 14.908 15.782C15.2843 15.5903 15.5903 15.2843 15.782 14.908C15.8617 14.7516 15.9266 14.5274 15.9624 14.089C15.9992 13.6389 16 13.0566 16 12.2V11C16 10.4477 16.4477 10 17 10C17.5523 10 18 10.4477 18 11V12.2413C18 13.0463 18 13.7106 17.9558 14.2518C17.9099 14.8139 17.8113 15.3306 17.564 15.816C17.1805 16.5686 16.5686 17.1805 15.816 17.564C15.3306 17.8113 14.8139 17.9099 14.2518 17.9558C13.7106 18 13.0463 18 12.2413 18H5.7587C4.95373 18 4.28937 18 3.74818 17.9558C3.18608 17.9099 2.66938 17.8113 2.18404 17.564C1.43139 17.1805 0.819469 16.5686 0.435976 15.816C0.188685 15.3306 0.0901205 14.8139 0.0441953 14.2518C-2.14241e-05 13.7106 -1.1561e-05 13.0463 3.91297e-07 12.2413V12.2413V12.2V11C3.91297e-07 10.4477 0.447717 10 1 10C1.55229 10 2 10.4477 2 11Z" fill="black"/>
</svg>
