<svg width="18" height="20" viewBox="0 0 18 20" fill="none" xmlns="http://www.w3.org/2000/svg">
<g id="Icon">
<path d="M5 5C4.44772 5 4 5.44772 4 6C4 6.55228 4.44772 7 5 7H13C13.5523 7 14 6.55228 14 6C14 5.44772 13.5523 5 13 5H5Z" fill="black"/>
<path d="M4 10C4 9.44771 4.44772 9 5 9H13C13.5523 9 14 9.44771 14 10C14 10.5523 13.5523 11 13 11H5C4.44772 11 4 10.5523 4 10Z" fill="black"/>
<path d="M5 13C4.44772 13 4 13.4477 4 14C4 14.5523 4.44772 15 5 15H9C9.55228 15 10 14.5523 10 14C10 13.4477 9.55228 13 9 13H5Z" fill="black"/>
<path fill-rule="evenodd" clip-rule="evenodd" d="M0 1C0 0.447716 0.447715 0 1 0H17C17.5523 0 18 0.447715 18 1V19C18 19.5523 17.5523 20 17 20H1C0.447715 20 0 19.5523 0 19V1ZM2 18V2H16V18H2Z" fill="black"/>
</g>
</svg>
