<svg width="17" height="12" viewBox="0 0 17 12" fill="none" xmlns="http://www.w3.org/2000/svg">
<g id="Icon">
<path d="M10.0024 6C10.0024 7.13909 9.10701 8.0625 8.00244 8.0625C6.89787 8.0625 6.00244 7.13909 6.00244 6C6.00244 4.86091 6.89787 3.9375 8.00244 3.9375C9.10701 3.9375 10.0024 4.86091 10.0024 6Z" fill="black"/>
<path d="M0 6C1.30608 2.77019 4.39718 0.5 8.00245 0.5C11.6077 0.5 14.6988 2.7702 16.0049 6C14.6988 9.22981 11.6077 11.5 8.00245 11.5C4.39718 11.5 1.30608 9.22981 0 6ZM11.3358 6C11.3358 4.10152 9.84339 2.5625 8.00244 2.5625C6.16149 2.5625 4.66911 4.10152 4.66911 6C4.66911 7.89848 6.16149 9.4375 8.00244 9.4375C9.84339 9.4375 11.3358 7.89848 11.3358 6Z" fill="black"/>
</g>
</svg>
