<?xml version="1.0" standalone="no"?>
<!DOCTYPE svg PUBLIC "-//W3C//DTD SVG 20010904//EN"
 "http://www.w3.org/TR/2001/REC-SVG-20010904/DTD/svg10.dtd">
<svg version="1.0" xmlns="http://www.w3.org/2000/svg"
 width="500.000000pt" height="500.000000pt" viewBox="0 0 500.000000 500.000000"
 preserveAspectRatio="xMidYMid meet">
<metadata>
Created by potrace 1.14, written by Peter Selinger 2001-2017
</metadata>
<g transform="translate(0.000000,500.000000) scale(0.100000,-0.100000)"
fill="#000000" stroke="none">
<path d="M405 4582 c-65 -22 -109 -54 -146 -105 -55 -75 -59 -109 -59 -459 l0
-318 2301 0 2301 0 -4 138 c-3 126 -5 142 -31 194 -32 64 -80 111 -146 142
-46 21 -49 21 -1438 26 -1377 5 -1392 5 -1408 25 -9 11 -53 77 -100 146 -91
137 -152 199 -213 217 -28 9 -180 12 -523 12 -433 -1 -489 -2 -534 -18z"/>
<path d="M249 3485 c-14 -8 -31 -27 -38 -42 -8 -21 -11 -387 -9 -1423 l3
-1395 28 -57 c32 -64 80 -111 146 -142 l46 -21 2075 0 2075 0 46 21 c66 31
114 78 146 142 l28 57 3 1395 c2 1038 -1 1402 -9 1423 -26 61 139 57 -2291 57
-1901 -1 -2227 -3 -2249 -15z m1291 -1410 l0 -675 -114 0 -114 0 -7 50 -7 49
-35 -34 c-73 -71 -182 -98 -287 -72 -191 47 -289 213 -289 487 0 119 8 170 44
265 28 75 112 165 181 195 111 48 242 34 332 -35 l46 -35 0 240 0 240 125 0
125 0 0 -675z m712 284 c105 -22 185 -76 238 -159 48 -75 70 -159 77 -292 l6
-118 -306 0 -306 0 14 -47 c17 -57 74 -117 132 -139 31 -12 62 -15 111 -12 76
6 127 26 174 70 l32 30 62 -68 61 -68 -20 -28 c-89 -121 -331 -177 -513 -120
-141 43 -249 154 -289 294 -22 76 -25 238 -6 318 60 251 282 392 533 339z
m717 -326 c47 -172 89 -307 92 -300 4 7 44 148 90 315 l82 302 133 0 134 0
-160 -472 c-88 -260 -160 -474 -160 -475 0 -2 -55 -3 -122 -3 l-123 0 -155
461 c-85 253 -156 467 -158 475 -3 12 16 14 129 12 l132 -3 86 -312z m1351
-733 l0 -100 -400 0 -400 0 0 100 0 100 400 0 400 0 0 -100z"/>
<path d="M1040 2142 c-25 -13 -44 -35 -65 -78 -29 -57 -30 -64 -30 -194 0
-132 1 -136 31 -189 19 -34 43 -61 65 -73 71 -38 190 -10 229 54 18 30 20 50
20 217 0 183 0 184 -26 219 -15 19 -42 40 -60 48 -46 19 -123 18 -164 -4z"/>
<path d="M2065 2142 c-16 -11 -38 -28 -47 -38 -22 -25 -48 -87 -48 -114 0 -19
6 -20 175 -20 195 0 184 -5 164 74 -7 27 -24 57 -45 77 -31 30 -41 34 -102 37
-53 2 -73 -1 -97 -16z"/>
</g>
</svg>
